<mxfile host="app.diagrams.net" modified="2023-01-21T12:57:25.701Z" agent="5.0 (Windows NT 10.0; Win64; x64) AppleWebKit/537.36 (KHTML, like Gecko) Chrome/109.0.0.0 Safari/537.36" etag="w5S0Dn-2BvRUqbPK9P0v" version="20.8.10" type="github" pages="2">
  <diagram id="dQDRL2nj_YWnlfUewfiG" name="Page-1">
    <mxGraphModel dx="3187" dy="1642" grid="1" gridSize="10" guides="1" tooltips="1" connect="1" arrows="1" fold="1" page="1" pageScale="1" pageWidth="850" pageHeight="1100" math="0" shadow="0">
      <root>
        <mxCell id="0" />
        <mxCell id="1" parent="0" />
        <mxCell id="kMOJA-RfkBf_1_hI_NBA-1" value="Mahasiswa" style="shape=table;startSize=30;container=1;collapsible=1;childLayout=tableLayout;fixedRows=1;rowLines=0;fontStyle=1;align=center;resizeLast=1;strokeWidth=2;" parent="1" vertex="1">
          <mxGeometry x="80" y="110" width="180" height="210" as="geometry" />
        </mxCell>
        <mxCell id="kMOJA-RfkBf_1_hI_NBA-2" value="" style="shape=tableRow;horizontal=0;startSize=0;swimlaneHead=0;swimlaneBody=0;fillColor=none;collapsible=0;dropTarget=0;points=[[0,0.5],[1,0.5]];portConstraint=eastwest;top=0;left=0;right=0;bottom=1;" parent="kMOJA-RfkBf_1_hI_NBA-1" vertex="1">
          <mxGeometry y="30" width="180" height="30" as="geometry" />
        </mxCell>
        <mxCell id="kMOJA-RfkBf_1_hI_NBA-3" value="PK" style="shape=partialRectangle;connectable=0;fillColor=none;top=0;left=0;bottom=0;right=0;fontStyle=1;overflow=hidden;" parent="kMOJA-RfkBf_1_hI_NBA-2" vertex="1">
          <mxGeometry width="30" height="30" as="geometry">
            <mxRectangle width="30" height="30" as="alternateBounds" />
          </mxGeometry>
        </mxCell>
        <mxCell id="kMOJA-RfkBf_1_hI_NBA-4" value="No_Mhs" style="shape=partialRectangle;connectable=0;fillColor=none;top=0;left=0;bottom=0;right=0;align=left;spacingLeft=6;fontStyle=1;overflow=hidden;" parent="kMOJA-RfkBf_1_hI_NBA-2" vertex="1">
          <mxGeometry x="30" width="150" height="30" as="geometry">
            <mxRectangle width="150" height="30" as="alternateBounds" />
          </mxGeometry>
        </mxCell>
        <mxCell id="kMOJA-RfkBf_1_hI_NBA-5" value="" style="shape=tableRow;horizontal=0;startSize=0;swimlaneHead=0;swimlaneBody=0;fillColor=none;collapsible=0;dropTarget=0;points=[[0,0.5],[1,0.5]];portConstraint=eastwest;top=0;left=0;right=0;bottom=0;" parent="kMOJA-RfkBf_1_hI_NBA-1" vertex="1">
          <mxGeometry y="60" width="180" height="30" as="geometry" />
        </mxCell>
        <mxCell id="kMOJA-RfkBf_1_hI_NBA-6" value="" style="shape=partialRectangle;connectable=0;fillColor=none;top=0;left=0;bottom=0;right=0;editable=1;overflow=hidden;" parent="kMOJA-RfkBf_1_hI_NBA-5" vertex="1">
          <mxGeometry width="30" height="30" as="geometry">
            <mxRectangle width="30" height="30" as="alternateBounds" />
          </mxGeometry>
        </mxCell>
        <mxCell id="kMOJA-RfkBf_1_hI_NBA-7" value="Nama" style="shape=partialRectangle;connectable=0;fillColor=none;top=0;left=0;bottom=0;right=0;align=left;spacingLeft=6;overflow=hidden;" parent="kMOJA-RfkBf_1_hI_NBA-5" vertex="1">
          <mxGeometry x="30" width="150" height="30" as="geometry">
            <mxRectangle width="150" height="30" as="alternateBounds" />
          </mxGeometry>
        </mxCell>
        <mxCell id="kMOJA-RfkBf_1_hI_NBA-8" value="" style="shape=tableRow;horizontal=0;startSize=0;swimlaneHead=0;swimlaneBody=0;fillColor=none;collapsible=0;dropTarget=0;points=[[0,0.5],[1,0.5]];portConstraint=eastwest;top=0;left=0;right=0;bottom=0;" parent="kMOJA-RfkBf_1_hI_NBA-1" vertex="1">
          <mxGeometry y="90" width="180" height="30" as="geometry" />
        </mxCell>
        <mxCell id="kMOJA-RfkBf_1_hI_NBA-9" value="" style="shape=partialRectangle;connectable=0;fillColor=none;top=0;left=0;bottom=0;right=0;editable=1;overflow=hidden;" parent="kMOJA-RfkBf_1_hI_NBA-8" vertex="1">
          <mxGeometry width="30" height="30" as="geometry">
            <mxRectangle width="30" height="30" as="alternateBounds" />
          </mxGeometry>
        </mxCell>
        <mxCell id="kMOJA-RfkBf_1_hI_NBA-10" value="Kode_Fak" style="shape=partialRectangle;connectable=0;fillColor=none;top=0;left=0;bottom=0;right=0;align=left;spacingLeft=6;overflow=hidden;" parent="kMOJA-RfkBf_1_hI_NBA-8" vertex="1">
          <mxGeometry x="30" width="150" height="30" as="geometry">
            <mxRectangle width="150" height="30" as="alternateBounds" />
          </mxGeometry>
        </mxCell>
        <mxCell id="kMOJA-RfkBf_1_hI_NBA-11" value="" style="shape=tableRow;horizontal=0;startSize=0;swimlaneHead=0;swimlaneBody=0;fillColor=none;collapsible=0;dropTarget=0;points=[[0,0.5],[1,0.5]];portConstraint=eastwest;top=0;left=0;right=0;bottom=0;strokeWidth=3;" parent="kMOJA-RfkBf_1_hI_NBA-1" vertex="1">
          <mxGeometry y="120" width="180" height="30" as="geometry" />
        </mxCell>
        <mxCell id="kMOJA-RfkBf_1_hI_NBA-12" value="" style="shape=partialRectangle;connectable=0;fillColor=none;top=0;left=0;bottom=0;right=0;editable=1;overflow=hidden;" parent="kMOJA-RfkBf_1_hI_NBA-11" vertex="1">
          <mxGeometry width="30" height="30" as="geometry">
            <mxRectangle width="30" height="30" as="alternateBounds" />
          </mxGeometry>
        </mxCell>
        <mxCell id="kMOJA-RfkBf_1_hI_NBA-13" value="Alamat_Ortu" style="shape=partialRectangle;connectable=0;fillColor=none;top=0;left=0;bottom=0;right=0;align=left;spacingLeft=6;overflow=hidden;" parent="kMOJA-RfkBf_1_hI_NBA-11" vertex="1">
          <mxGeometry x="30" width="150" height="30" as="geometry">
            <mxRectangle width="150" height="30" as="alternateBounds" />
          </mxGeometry>
        </mxCell>
        <mxCell id="kMOJA-RfkBf_1_hI_NBA-14" value="Kota_Ortu" style="shape=partialRectangle;connectable=0;fillColor=none;top=0;left=0;bottom=0;right=0;align=left;spacingLeft=6;overflow=hidden;" parent="1" vertex="1">
          <mxGeometry x="110" y="260" width="150" height="30" as="geometry">
            <mxRectangle width="150" height="30" as="alternateBounds" />
          </mxGeometry>
        </mxCell>
        <mxCell id="kMOJA-RfkBf_1_hI_NBA-15" value="SPP" style="shape=partialRectangle;connectable=0;fillColor=none;top=0;left=0;bottom=0;right=0;align=left;spacingLeft=6;overflow=hidden;" parent="1" vertex="1">
          <mxGeometry x="110" y="290" width="150" height="30" as="geometry">
            <mxRectangle width="150" height="30" as="alternateBounds" />
          </mxGeometry>
        </mxCell>
        <mxCell id="kMOJA-RfkBf_1_hI_NBA-17" value="" style="endArrow=none;html=1;rounded=0;strokeWidth=2;" parent="1" edge="1">
          <mxGeometry relative="1" as="geometry">
            <mxPoint x="109.43" y="179.9999999999999" as="sourcePoint" />
            <mxPoint x="109.43" y="320" as="targetPoint" />
          </mxGeometry>
        </mxCell>
        <mxCell id="kMOJA-RfkBf_1_hI_NBA-44" value="Mata Kuliah" style="shape=table;startSize=30;container=1;collapsible=1;childLayout=tableLayout;fixedRows=1;rowLines=0;fontStyle=1;align=center;resizeLast=1;strokeWidth=2;" parent="1" vertex="1">
          <mxGeometry x="80" y="480" width="180" height="150" as="geometry" />
        </mxCell>
        <mxCell id="kMOJA-RfkBf_1_hI_NBA-45" value="" style="shape=tableRow;horizontal=0;startSize=0;swimlaneHead=0;swimlaneBody=0;fillColor=none;collapsible=0;dropTarget=0;points=[[0,0.5],[1,0.5]];portConstraint=eastwest;top=0;left=0;right=0;bottom=1;" parent="kMOJA-RfkBf_1_hI_NBA-44" vertex="1">
          <mxGeometry y="30" width="180" height="30" as="geometry" />
        </mxCell>
        <mxCell id="kMOJA-RfkBf_1_hI_NBA-46" value="PK" style="shape=partialRectangle;connectable=0;fillColor=none;top=0;left=0;bottom=0;right=0;fontStyle=1;overflow=hidden;" parent="kMOJA-RfkBf_1_hI_NBA-45" vertex="1">
          <mxGeometry width="30" height="30" as="geometry">
            <mxRectangle width="30" height="30" as="alternateBounds" />
          </mxGeometry>
        </mxCell>
        <mxCell id="kMOJA-RfkBf_1_hI_NBA-47" value="Kode_MataKuliah" style="shape=partialRectangle;connectable=0;fillColor=none;top=0;left=0;bottom=0;right=0;align=left;spacingLeft=6;fontStyle=1;overflow=hidden;" parent="kMOJA-RfkBf_1_hI_NBA-45" vertex="1">
          <mxGeometry x="30" width="150" height="30" as="geometry">
            <mxRectangle width="150" height="30" as="alternateBounds" />
          </mxGeometry>
        </mxCell>
        <mxCell id="kMOJA-RfkBf_1_hI_NBA-48" value="" style="shape=tableRow;horizontal=0;startSize=0;swimlaneHead=0;swimlaneBody=0;fillColor=none;collapsible=0;dropTarget=0;points=[[0,0.5],[1,0.5]];portConstraint=eastwest;top=0;left=0;right=0;bottom=0;" parent="kMOJA-RfkBf_1_hI_NBA-44" vertex="1">
          <mxGeometry y="60" width="180" height="30" as="geometry" />
        </mxCell>
        <mxCell id="kMOJA-RfkBf_1_hI_NBA-49" value="" style="shape=partialRectangle;connectable=0;fillColor=none;top=0;left=0;bottom=0;right=0;editable=1;overflow=hidden;" parent="kMOJA-RfkBf_1_hI_NBA-48" vertex="1">
          <mxGeometry width="30" height="30" as="geometry">
            <mxRectangle width="30" height="30" as="alternateBounds" />
          </mxGeometry>
        </mxCell>
        <mxCell id="kMOJA-RfkBf_1_hI_NBA-50" value="Nama_MataKuliah" style="shape=partialRectangle;connectable=0;fillColor=none;top=0;left=0;bottom=0;right=0;align=left;spacingLeft=6;overflow=hidden;" parent="kMOJA-RfkBf_1_hI_NBA-48" vertex="1">
          <mxGeometry x="30" width="150" height="30" as="geometry">
            <mxRectangle width="150" height="30" as="alternateBounds" />
          </mxGeometry>
        </mxCell>
        <mxCell id="kMOJA-RfkBf_1_hI_NBA-51" value="" style="shape=tableRow;horizontal=0;startSize=0;swimlaneHead=0;swimlaneBody=0;fillColor=none;collapsible=0;dropTarget=0;points=[[0,0.5],[1,0.5]];portConstraint=eastwest;top=0;left=0;right=0;bottom=0;" parent="kMOJA-RfkBf_1_hI_NBA-44" vertex="1">
          <mxGeometry y="90" width="180" height="30" as="geometry" />
        </mxCell>
        <mxCell id="kMOJA-RfkBf_1_hI_NBA-52" value="" style="shape=partialRectangle;connectable=0;fillColor=none;top=0;left=0;bottom=0;right=0;editable=1;overflow=hidden;" parent="kMOJA-RfkBf_1_hI_NBA-51" vertex="1">
          <mxGeometry width="30" height="30" as="geometry">
            <mxRectangle width="30" height="30" as="alternateBounds" />
          </mxGeometry>
        </mxCell>
        <mxCell id="kMOJA-RfkBf_1_hI_NBA-53" value="SKS" style="shape=partialRectangle;connectable=0;fillColor=none;top=0;left=0;bottom=0;right=0;align=left;spacingLeft=6;overflow=hidden;" parent="kMOJA-RfkBf_1_hI_NBA-51" vertex="1">
          <mxGeometry x="30" width="150" height="30" as="geometry">
            <mxRectangle width="150" height="30" as="alternateBounds" />
          </mxGeometry>
        </mxCell>
        <mxCell id="kMOJA-RfkBf_1_hI_NBA-54" value="" style="shape=tableRow;horizontal=0;startSize=0;swimlaneHead=0;swimlaneBody=0;fillColor=none;collapsible=0;dropTarget=0;points=[[0,0.5],[1,0.5]];portConstraint=eastwest;top=0;left=0;right=0;bottom=0;" parent="kMOJA-RfkBf_1_hI_NBA-44" vertex="1">
          <mxGeometry y="120" width="180" height="30" as="geometry" />
        </mxCell>
        <mxCell id="kMOJA-RfkBf_1_hI_NBA-55" value="" style="shape=partialRectangle;connectable=0;fillColor=none;top=0;left=0;bottom=0;right=0;editable=1;overflow=hidden;" parent="kMOJA-RfkBf_1_hI_NBA-54" vertex="1">
          <mxGeometry width="30" height="30" as="geometry">
            <mxRectangle width="30" height="30" as="alternateBounds" />
          </mxGeometry>
        </mxCell>
        <mxCell id="kMOJA-RfkBf_1_hI_NBA-56" value="" style="shape=partialRectangle;connectable=0;fillColor=none;top=0;left=0;bottom=0;right=0;align=left;spacingLeft=6;overflow=hidden;" parent="kMOJA-RfkBf_1_hI_NBA-54" vertex="1">
          <mxGeometry x="30" width="150" height="30" as="geometry">
            <mxRectangle width="150" height="30" as="alternateBounds" />
          </mxGeometry>
        </mxCell>
        <mxCell id="zicQz6CJfmKbyCbvD3w5-1" value="KRS" style="shape=table;startSize=30;container=1;collapsible=1;childLayout=tableLayout;fixedRows=1;rowLines=0;fontStyle=1;align=center;resizeLast=1;strokeWidth=2;" parent="1" vertex="1">
          <mxGeometry x="440" y="320" width="180" height="150" as="geometry" />
        </mxCell>
        <mxCell id="zicQz6CJfmKbyCbvD3w5-2" value="" style="shape=tableRow;horizontal=0;startSize=0;swimlaneHead=0;swimlaneBody=0;fillColor=none;collapsible=0;dropTarget=0;points=[[0,0.5],[1,0.5]];portConstraint=eastwest;top=0;left=0;right=0;bottom=1;" parent="zicQz6CJfmKbyCbvD3w5-1" vertex="1">
          <mxGeometry y="30" width="180" height="30" as="geometry" />
        </mxCell>
        <mxCell id="zicQz6CJfmKbyCbvD3w5-3" value="PK" style="shape=partialRectangle;connectable=0;fillColor=none;top=0;left=0;bottom=0;right=0;fontStyle=1;overflow=hidden;" parent="zicQz6CJfmKbyCbvD3w5-2" vertex="1">
          <mxGeometry width="30" height="30" as="geometry">
            <mxRectangle width="30" height="30" as="alternateBounds" />
          </mxGeometry>
        </mxCell>
        <mxCell id="zicQz6CJfmKbyCbvD3w5-4" value="No_Mhs" style="shape=partialRectangle;connectable=0;fillColor=none;top=0;left=0;bottom=0;right=0;align=left;spacingLeft=6;fontStyle=1;overflow=hidden;" parent="zicQz6CJfmKbyCbvD3w5-2" vertex="1">
          <mxGeometry x="30" width="150" height="30" as="geometry">
            <mxRectangle width="150" height="30" as="alternateBounds" />
          </mxGeometry>
        </mxCell>
        <mxCell id="zicQz6CJfmKbyCbvD3w5-5" value="" style="shape=tableRow;horizontal=0;startSize=0;swimlaneHead=0;swimlaneBody=0;fillColor=none;collapsible=0;dropTarget=0;points=[[0,0.5],[1,0.5]];portConstraint=eastwest;top=0;left=0;right=0;bottom=0;" parent="zicQz6CJfmKbyCbvD3w5-1" vertex="1">
          <mxGeometry y="60" width="180" height="30" as="geometry" />
        </mxCell>
        <mxCell id="zicQz6CJfmKbyCbvD3w5-6" value="" style="shape=partialRectangle;connectable=0;fillColor=none;top=0;left=0;bottom=0;right=0;editable=1;overflow=hidden;" parent="zicQz6CJfmKbyCbvD3w5-5" vertex="1">
          <mxGeometry width="30" height="30" as="geometry">
            <mxRectangle width="30" height="30" as="alternateBounds" />
          </mxGeometry>
        </mxCell>
        <mxCell id="zicQz6CJfmKbyCbvD3w5-7" value="Kode_MataKuliah" style="shape=partialRectangle;connectable=0;fillColor=none;top=0;left=0;bottom=0;right=0;align=left;spacingLeft=6;overflow=hidden;fontStyle=1" parent="zicQz6CJfmKbyCbvD3w5-5" vertex="1">
          <mxGeometry x="30" width="150" height="30" as="geometry">
            <mxRectangle width="150" height="30" as="alternateBounds" />
          </mxGeometry>
        </mxCell>
        <mxCell id="zicQz6CJfmKbyCbvD3w5-8" value="" style="shape=tableRow;horizontal=0;startSize=0;swimlaneHead=0;swimlaneBody=0;fillColor=none;collapsible=0;dropTarget=0;points=[[0,0.5],[1,0.5]];portConstraint=eastwest;top=0;left=0;right=0;bottom=0;" parent="zicQz6CJfmKbyCbvD3w5-1" vertex="1">
          <mxGeometry y="90" width="180" height="30" as="geometry" />
        </mxCell>
        <mxCell id="zicQz6CJfmKbyCbvD3w5-9" value="" style="shape=partialRectangle;connectable=0;fillColor=none;top=0;left=0;bottom=0;right=0;editable=1;overflow=hidden;" parent="zicQz6CJfmKbyCbvD3w5-8" vertex="1">
          <mxGeometry width="30" height="30" as="geometry">
            <mxRectangle width="30" height="30" as="alternateBounds" />
          </mxGeometry>
        </mxCell>
        <mxCell id="zicQz6CJfmKbyCbvD3w5-10" value="" style="shape=partialRectangle;connectable=0;fillColor=none;top=0;left=0;bottom=0;right=0;align=left;spacingLeft=6;overflow=hidden;" parent="zicQz6CJfmKbyCbvD3w5-8" vertex="1">
          <mxGeometry x="30" width="150" height="30" as="geometry">
            <mxRectangle width="150" height="30" as="alternateBounds" />
          </mxGeometry>
        </mxCell>
        <mxCell id="zicQz6CJfmKbyCbvD3w5-11" value="" style="shape=tableRow;horizontal=0;startSize=0;swimlaneHead=0;swimlaneBody=0;fillColor=none;collapsible=0;dropTarget=0;points=[[0,0.5],[1,0.5]];portConstraint=eastwest;top=0;left=0;right=0;bottom=0;" parent="zicQz6CJfmKbyCbvD3w5-1" vertex="1">
          <mxGeometry y="120" width="180" height="30" as="geometry" />
        </mxCell>
        <mxCell id="zicQz6CJfmKbyCbvD3w5-12" value="" style="shape=partialRectangle;connectable=0;fillColor=none;top=0;left=0;bottom=0;right=0;editable=1;overflow=hidden;" parent="zicQz6CJfmKbyCbvD3w5-11" vertex="1">
          <mxGeometry width="30" height="30" as="geometry">
            <mxRectangle width="30" height="30" as="alternateBounds" />
          </mxGeometry>
        </mxCell>
        <mxCell id="zicQz6CJfmKbyCbvD3w5-13" value="" style="shape=partialRectangle;connectable=0;fillColor=none;top=0;left=0;bottom=0;right=0;align=left;spacingLeft=6;overflow=hidden;" parent="zicQz6CJfmKbyCbvD3w5-11" vertex="1">
          <mxGeometry x="30" width="150" height="30" as="geometry">
            <mxRectangle width="150" height="30" as="alternateBounds" />
          </mxGeometry>
        </mxCell>
        <mxCell id="zicQz6CJfmKbyCbvD3w5-14" value="PK" style="shape=partialRectangle;connectable=0;fillColor=none;top=0;left=0;bottom=0;right=0;fontStyle=1;overflow=hidden;" parent="1" vertex="1">
          <mxGeometry x="440" y="380" width="30" height="30" as="geometry">
            <mxRectangle width="30" height="30" as="alternateBounds" />
          </mxGeometry>
        </mxCell>
        <mxCell id="zicQz6CJfmKbyCbvD3w5-15" value="KHS" style="shape=table;startSize=30;container=1;collapsible=1;childLayout=tableLayout;fixedRows=1;rowLines=0;fontStyle=1;align=center;resizeLast=1;strokeWidth=2;" parent="1" vertex="1">
          <mxGeometry x="760" y="290" width="180" height="210" as="geometry" />
        </mxCell>
        <mxCell id="zicQz6CJfmKbyCbvD3w5-16" value="" style="shape=tableRow;horizontal=0;startSize=0;swimlaneHead=0;swimlaneBody=0;fillColor=none;collapsible=0;dropTarget=0;points=[[0,0.5],[1,0.5]];portConstraint=eastwest;top=0;left=0;right=0;bottom=1;" parent="zicQz6CJfmKbyCbvD3w5-15" vertex="1">
          <mxGeometry y="30" width="180" height="30" as="geometry" />
        </mxCell>
        <mxCell id="zicQz6CJfmKbyCbvD3w5-17" value="PK" style="shape=partialRectangle;connectable=0;fillColor=none;top=0;left=0;bottom=0;right=0;fontStyle=1;overflow=hidden;" parent="zicQz6CJfmKbyCbvD3w5-16" vertex="1">
          <mxGeometry width="30" height="30" as="geometry">
            <mxRectangle width="30" height="30" as="alternateBounds" />
          </mxGeometry>
        </mxCell>
        <mxCell id="zicQz6CJfmKbyCbvD3w5-18" value="No_Mhs" style="shape=partialRectangle;connectable=0;fillColor=none;top=0;left=0;bottom=0;right=0;align=left;spacingLeft=6;fontStyle=1;overflow=hidden;" parent="zicQz6CJfmKbyCbvD3w5-16" vertex="1">
          <mxGeometry x="30" width="150" height="30" as="geometry">
            <mxRectangle width="150" height="30" as="alternateBounds" />
          </mxGeometry>
        </mxCell>
        <mxCell id="zicQz6CJfmKbyCbvD3w5-19" value="" style="shape=tableRow;horizontal=0;startSize=0;swimlaneHead=0;swimlaneBody=0;fillColor=none;collapsible=0;dropTarget=0;points=[[0,0.5],[1,0.5]];portConstraint=eastwest;top=0;left=0;right=0;bottom=0;" parent="zicQz6CJfmKbyCbvD3w5-15" vertex="1">
          <mxGeometry y="60" width="180" height="30" as="geometry" />
        </mxCell>
        <mxCell id="zicQz6CJfmKbyCbvD3w5-20" value="" style="shape=partialRectangle;connectable=0;fillColor=none;top=0;left=0;bottom=0;right=0;editable=1;overflow=hidden;" parent="zicQz6CJfmKbyCbvD3w5-19" vertex="1">
          <mxGeometry width="30" height="30" as="geometry">
            <mxRectangle width="30" height="30" as="alternateBounds" />
          </mxGeometry>
        </mxCell>
        <mxCell id="zicQz6CJfmKbyCbvD3w5-21" value="Kode_MataKuliah" style="shape=partialRectangle;connectable=0;fillColor=none;top=0;left=0;bottom=0;right=0;align=left;spacingLeft=6;overflow=hidden;fontStyle=1" parent="zicQz6CJfmKbyCbvD3w5-19" vertex="1">
          <mxGeometry x="30" width="150" height="30" as="geometry">
            <mxRectangle width="150" height="30" as="alternateBounds" />
          </mxGeometry>
        </mxCell>
        <mxCell id="zicQz6CJfmKbyCbvD3w5-22" value="" style="shape=tableRow;horizontal=0;startSize=0;swimlaneHead=0;swimlaneBody=0;fillColor=none;collapsible=0;dropTarget=0;points=[[0,0.5],[1,0.5]];portConstraint=eastwest;top=0;left=0;right=0;bottom=0;" parent="zicQz6CJfmKbyCbvD3w5-15" vertex="1">
          <mxGeometry y="90" width="180" height="30" as="geometry" />
        </mxCell>
        <mxCell id="zicQz6CJfmKbyCbvD3w5-23" value="" style="shape=partialRectangle;connectable=0;fillColor=none;top=0;left=0;bottom=0;right=0;editable=1;overflow=hidden;" parent="zicQz6CJfmKbyCbvD3w5-22" vertex="1">
          <mxGeometry width="30" height="30" as="geometry">
            <mxRectangle width="30" height="30" as="alternateBounds" />
          </mxGeometry>
        </mxCell>
        <mxCell id="zicQz6CJfmKbyCbvD3w5-24" value="Semester" style="shape=partialRectangle;connectable=0;fillColor=none;top=0;left=0;bottom=0;right=0;align=left;spacingLeft=6;overflow=hidden;" parent="zicQz6CJfmKbyCbvD3w5-22" vertex="1">
          <mxGeometry x="30" width="150" height="30" as="geometry">
            <mxRectangle width="150" height="30" as="alternateBounds" />
          </mxGeometry>
        </mxCell>
        <mxCell id="zicQz6CJfmKbyCbvD3w5-25" value="" style="shape=tableRow;horizontal=0;startSize=0;swimlaneHead=0;swimlaneBody=0;fillColor=none;collapsible=0;dropTarget=0;points=[[0,0.5],[1,0.5]];portConstraint=eastwest;top=0;left=0;right=0;bottom=0;strokeWidth=3;" parent="zicQz6CJfmKbyCbvD3w5-15" vertex="1">
          <mxGeometry y="120" width="180" height="30" as="geometry" />
        </mxCell>
        <mxCell id="zicQz6CJfmKbyCbvD3w5-26" value="" style="shape=partialRectangle;connectable=0;fillColor=none;top=0;left=0;bottom=0;right=0;editable=1;overflow=hidden;" parent="zicQz6CJfmKbyCbvD3w5-25" vertex="1">
          <mxGeometry width="30" height="30" as="geometry">
            <mxRectangle width="30" height="30" as="alternateBounds" />
          </mxGeometry>
        </mxCell>
        <mxCell id="zicQz6CJfmKbyCbvD3w5-27" value="Tahun" style="shape=partialRectangle;connectable=0;fillColor=none;top=0;left=0;bottom=0;right=0;align=left;spacingLeft=6;overflow=hidden;" parent="zicQz6CJfmKbyCbvD3w5-25" vertex="1">
          <mxGeometry x="30" width="150" height="30" as="geometry">
            <mxRectangle width="150" height="30" as="alternateBounds" />
          </mxGeometry>
        </mxCell>
        <mxCell id="zicQz6CJfmKbyCbvD3w5-28" style="edgeStyle=orthogonalEdgeStyle;rounded=0;orthogonalLoop=1;jettySize=auto;html=1;entryX=0;entryY=0.5;entryDx=0;entryDy=0;strokeWidth=2;curved=1;" parent="1" source="kMOJA-RfkBf_1_hI_NBA-2" target="zicQz6CJfmKbyCbvD3w5-2" edge="1">
          <mxGeometry relative="1" as="geometry" />
        </mxCell>
        <mxCell id="zicQz6CJfmKbyCbvD3w5-29" style="edgeStyle=orthogonalEdgeStyle;curved=1;rounded=0;orthogonalLoop=1;jettySize=auto;html=1;entryX=0;entryY=0.5;entryDx=0;entryDy=0;strokeWidth=2;" parent="1" source="kMOJA-RfkBf_1_hI_NBA-45" target="zicQz6CJfmKbyCbvD3w5-1" edge="1">
          <mxGeometry relative="1" as="geometry" />
        </mxCell>
        <mxCell id="zicQz6CJfmKbyCbvD3w5-30" value="PK" style="shape=partialRectangle;connectable=0;fillColor=none;top=0;left=0;bottom=0;right=0;fontStyle=1;overflow=hidden;" parent="1" vertex="1">
          <mxGeometry x="760" y="350" width="30" height="30" as="geometry">
            <mxRectangle width="30" height="30" as="alternateBounds" />
          </mxGeometry>
        </mxCell>
        <mxCell id="zicQz6CJfmKbyCbvD3w5-31" value="SKS" style="shape=partialRectangle;connectable=0;fillColor=none;top=0;left=0;bottom=0;right=0;align=left;spacingLeft=6;overflow=hidden;" parent="1" vertex="1">
          <mxGeometry x="790" y="440" width="150" height="30" as="geometry">
            <mxRectangle width="150" height="30" as="alternateBounds" />
          </mxGeometry>
        </mxCell>
        <mxCell id="zicQz6CJfmKbyCbvD3w5-32" value="Nilai" style="shape=partialRectangle;connectable=0;fillColor=none;top=0;left=0;bottom=0;right=0;align=left;spacingLeft=6;overflow=hidden;" parent="1" vertex="1">
          <mxGeometry x="790" y="470" width="150" height="30" as="geometry">
            <mxRectangle width="150" height="30" as="alternateBounds" />
          </mxGeometry>
        </mxCell>
        <mxCell id="zicQz6CJfmKbyCbvD3w5-33" value="" style="endArrow=none;html=1;rounded=0;strokeWidth=2;" parent="1" edge="1">
          <mxGeometry relative="1" as="geometry">
            <mxPoint x="790.0000000000001" y="359.9999999999999" as="sourcePoint" />
            <mxPoint x="790.0000000000001" y="500" as="targetPoint" />
          </mxGeometry>
        </mxCell>
        <mxCell id="zicQz6CJfmKbyCbvD3w5-34" style="edgeStyle=orthogonalEdgeStyle;curved=1;rounded=0;orthogonalLoop=1;jettySize=auto;html=1;entryX=0;entryY=0.25;entryDx=0;entryDy=0;strokeWidth=2;" parent="1" source="zicQz6CJfmKbyCbvD3w5-2" target="zicQz6CJfmKbyCbvD3w5-15" edge="1">
          <mxGeometry relative="1" as="geometry" />
        </mxCell>
        <mxCell id="zicQz6CJfmKbyCbvD3w5-37" value="KHS" style="whiteSpace=wrap;html=1;align=center;" parent="1" vertex="1">
          <mxGeometry x="445" y="760" width="100" height="40" as="geometry" />
        </mxCell>
        <mxCell id="zicQz6CJfmKbyCbvD3w5-94" style="edgeStyle=none;rounded=0;orthogonalLoop=1;jettySize=auto;html=1;entryX=0.5;entryY=1;entryDx=0;entryDy=0;strokeWidth=1;" parent="1" source="zicQz6CJfmKbyCbvD3w5-39" target="zicQz6CJfmKbyCbvD3w5-41" edge="1">
          <mxGeometry relative="1" as="geometry" />
        </mxCell>
        <mxCell id="zicQz6CJfmKbyCbvD3w5-39" value="KRS" style="whiteSpace=wrap;html=1;align=center;" parent="1" vertex="1">
          <mxGeometry x="710" y="890" width="100" height="40" as="geometry" />
        </mxCell>
        <mxCell id="zicQz6CJfmKbyCbvD3w5-95" style="edgeStyle=none;rounded=0;orthogonalLoop=1;jettySize=auto;html=1;strokeWidth=1;" parent="1" source="zicQz6CJfmKbyCbvD3w5-41" edge="1">
          <mxGeometry relative="1" as="geometry">
            <mxPoint x="550" y="780" as="targetPoint" />
          </mxGeometry>
        </mxCell>
        <mxCell id="zicQz6CJfmKbyCbvD3w5-41" value="Menghasilkan" style="shape=rhombus;perimeter=rhombusPerimeter;whiteSpace=wrap;html=1;align=center;" parent="1" vertex="1">
          <mxGeometry x="700" y="750" width="120" height="60" as="geometry" />
        </mxCell>
        <mxCell id="zicQz6CJfmKbyCbvD3w5-92" style="edgeStyle=orthogonalEdgeStyle;curved=1;rounded=0;orthogonalLoop=1;jettySize=auto;html=1;entryX=0;entryY=0.5;entryDx=0;entryDy=0;strokeWidth=1;" parent="1" source="zicQz6CJfmKbyCbvD3w5-43" target="zicQz6CJfmKbyCbvD3w5-45" edge="1">
          <mxGeometry relative="1" as="geometry" />
        </mxCell>
        <mxCell id="zicQz6CJfmKbyCbvD3w5-43" value="Mata Kuliah" style="whiteSpace=wrap;html=1;align=center;" parent="1" vertex="1">
          <mxGeometry x="480" y="1060" width="100" height="40" as="geometry" />
        </mxCell>
        <mxCell id="zicQz6CJfmKbyCbvD3w5-93" style="rounded=0;orthogonalLoop=1;jettySize=auto;html=1;entryX=0.5;entryY=1;entryDx=0;entryDy=0;strokeWidth=1;" parent="1" source="zicQz6CJfmKbyCbvD3w5-45" target="zicQz6CJfmKbyCbvD3w5-39" edge="1">
          <mxGeometry relative="1" as="geometry" />
        </mxCell>
        <mxCell id="zicQz6CJfmKbyCbvD3w5-45" value="Mengajukan" style="shape=rhombus;perimeter=rhombusPerimeter;whiteSpace=wrap;html=1;align=center;" parent="1" vertex="1">
          <mxGeometry x="710" y="1050" width="120" height="60" as="geometry" />
        </mxCell>
        <mxCell id="zicQz6CJfmKbyCbvD3w5-89" style="edgeStyle=orthogonalEdgeStyle;curved=1;rounded=0;orthogonalLoop=1;jettySize=auto;html=1;entryX=0;entryY=0.5;entryDx=0;entryDy=0;strokeWidth=1;" parent="1" source="zicQz6CJfmKbyCbvD3w5-47" target="zicQz6CJfmKbyCbvD3w5-43" edge="1">
          <mxGeometry relative="1" as="geometry" />
        </mxCell>
        <mxCell id="zicQz6CJfmKbyCbvD3w5-47" value="Memilih" style="shape=rhombus;perimeter=rhombusPerimeter;whiteSpace=wrap;html=1;align=center;" parent="1" vertex="1">
          <mxGeometry x="160" y="1050" width="120" height="60" as="geometry" />
        </mxCell>
        <mxCell id="zicQz6CJfmKbyCbvD3w5-88" style="edgeStyle=orthogonalEdgeStyle;curved=1;rounded=0;orthogonalLoop=1;jettySize=auto;html=1;entryX=0.5;entryY=0;entryDx=0;entryDy=0;strokeWidth=1;" parent="1" source="zicQz6CJfmKbyCbvD3w5-48" target="zicQz6CJfmKbyCbvD3w5-47" edge="1">
          <mxGeometry relative="1" as="geometry" />
        </mxCell>
        <mxCell id="zicQz6CJfmKbyCbvD3w5-48" value="Mahasiswa" style="whiteSpace=wrap;html=1;align=center;" parent="1" vertex="1">
          <mxGeometry x="170" y="930" width="100" height="40" as="geometry" />
        </mxCell>
        <mxCell id="zicQz6CJfmKbyCbvD3w5-49" style="edgeStyle=orthogonalEdgeStyle;rounded=0;orthogonalLoop=1;jettySize=auto;html=1;curved=1;entryX=0.468;entryY=-0.032;entryDx=0;entryDy=0;entryPerimeter=0;" parent="1" source="zicQz6CJfmKbyCbvD3w5-50" target="zicQz6CJfmKbyCbvD3w5-37" edge="1">
          <mxGeometry relative="1" as="geometry">
            <mxPoint x="440" y="770" as="targetPoint" />
          </mxGeometry>
        </mxCell>
        <mxCell id="zicQz6CJfmKbyCbvD3w5-50" value="No_Mhs" style="ellipse;whiteSpace=wrap;html=1;align=center;" parent="1" vertex="1">
          <mxGeometry x="300" y="690" width="100" height="40" as="geometry" />
        </mxCell>
        <mxCell id="zicQz6CJfmKbyCbvD3w5-99" style="edgeStyle=orthogonalEdgeStyle;curved=1;rounded=0;orthogonalLoop=1;jettySize=auto;html=1;exitX=1;exitY=1;exitDx=0;exitDy=0;entryX=0.472;entryY=-0.037;entryDx=0;entryDy=0;entryPerimeter=0;strokeWidth=1;" parent="1" source="zicQz6CJfmKbyCbvD3w5-52" target="zicQz6CJfmKbyCbvD3w5-37" edge="1">
          <mxGeometry relative="1" as="geometry" />
        </mxCell>
        <mxCell id="zicQz6CJfmKbyCbvD3w5-52" value="&lt;span style=&quot;border-bottom: 1px dotted&quot;&gt;Kode_MataKuliah&lt;/span&gt;" style="ellipse;whiteSpace=wrap;html=1;align=center;" parent="1" vertex="1">
          <mxGeometry x="370" y="630" width="110" height="50" as="geometry" />
        </mxCell>
        <mxCell id="zicQz6CJfmKbyCbvD3w5-102" style="rounded=0;orthogonalLoop=1;jettySize=auto;html=1;exitX=0;exitY=1;exitDx=0;exitDy=0;entryX=0.45;entryY=0;entryDx=0;entryDy=0;entryPerimeter=0;strokeWidth=1;edgeStyle=orthogonalEdgeStyle;curved=1;" parent="1" source="zicQz6CJfmKbyCbvD3w5-54" target="zicQz6CJfmKbyCbvD3w5-37" edge="1">
          <mxGeometry relative="1" as="geometry">
            <Array as="points">
              <mxPoint x="500" y="643" />
              <mxPoint x="500" y="706" />
              <mxPoint x="490" y="706" />
            </Array>
          </mxGeometry>
        </mxCell>
        <mxCell id="zicQz6CJfmKbyCbvD3w5-54" value="&lt;span style=&quot;border-bottom: 1px dotted&quot;&gt;Semester&lt;/span&gt;" style="ellipse;whiteSpace=wrap;html=1;align=center;rotation=-15;" parent="1" vertex="1">
          <mxGeometry x="500" y="600" width="100" height="40" as="geometry" />
        </mxCell>
        <mxCell id="zicQz6CJfmKbyCbvD3w5-103" style="edgeStyle=orthogonalEdgeStyle;curved=1;rounded=0;orthogonalLoop=1;jettySize=auto;html=1;exitX=0;exitY=0.5;exitDx=0;exitDy=0;strokeWidth=1;" parent="1" source="zicQz6CJfmKbyCbvD3w5-56" edge="1">
          <mxGeometry relative="1" as="geometry">
            <mxPoint x="490" y="760.0000000000001" as="targetPoint" />
          </mxGeometry>
        </mxCell>
        <mxCell id="zicQz6CJfmKbyCbvD3w5-56" value="&lt;span style=&quot;border-bottom: 1px dotted&quot;&gt;Tahun&lt;/span&gt;" style="ellipse;whiteSpace=wrap;html=1;align=center;rotation=-15;" parent="1" vertex="1">
          <mxGeometry x="540" y="640" width="100" height="30" as="geometry" />
        </mxCell>
        <mxCell id="zicQz6CJfmKbyCbvD3w5-58" style="edgeStyle=orthogonalEdgeStyle;curved=1;rounded=0;orthogonalLoop=1;jettySize=auto;html=1;entryX=1;entryY=0.5;entryDx=0;entryDy=0;" parent="1" source="zicQz6CJfmKbyCbvD3w5-59" target="zicQz6CJfmKbyCbvD3w5-39" edge="1">
          <mxGeometry relative="1" as="geometry" />
        </mxCell>
        <mxCell id="zicQz6CJfmKbyCbvD3w5-59" value="&lt;span style=&quot;border-bottom: 1px dotted&quot;&gt;No_Mhs&lt;/span&gt;" style="ellipse;whiteSpace=wrap;html=1;align=center;" parent="1" vertex="1">
          <mxGeometry x="880" y="840" width="100" height="40" as="geometry" />
        </mxCell>
        <mxCell id="zicQz6CJfmKbyCbvD3w5-66" style="edgeStyle=orthogonalEdgeStyle;curved=1;rounded=0;orthogonalLoop=1;jettySize=auto;html=1;" parent="1" source="zicQz6CJfmKbyCbvD3w5-67" edge="1">
          <mxGeometry relative="1" as="geometry">
            <mxPoint x="530" y="1100" as="targetPoint" />
          </mxGeometry>
        </mxCell>
        <mxCell id="zicQz6CJfmKbyCbvD3w5-67" value="&lt;span style=&quot;border-bottom: 1px dotted&quot;&gt;SKS&lt;/span&gt;" style="ellipse;whiteSpace=wrap;html=1;align=center;" parent="1" vertex="1">
          <mxGeometry x="590" y="1110" width="100" height="40" as="geometry" />
        </mxCell>
        <mxCell id="zicQz6CJfmKbyCbvD3w5-70" style="edgeStyle=orthogonalEdgeStyle;curved=1;rounded=0;orthogonalLoop=1;jettySize=auto;html=1;" parent="1" source="zicQz6CJfmKbyCbvD3w5-71" edge="1">
          <mxGeometry relative="1" as="geometry">
            <mxPoint x="530" y="1100" as="targetPoint" />
            <Array as="points">
              <mxPoint x="525" y="1120" />
              <mxPoint x="530" y="1120" />
            </Array>
          </mxGeometry>
        </mxCell>
        <mxCell id="zicQz6CJfmKbyCbvD3w5-71" value="&lt;span style=&quot;border-bottom: 1px dotted&quot;&gt;Nama_MataKuliah&lt;/span&gt;" style="ellipse;whiteSpace=wrap;html=1;align=center;" parent="1" vertex="1">
          <mxGeometry x="470" y="1170" width="110" height="60" as="geometry" />
        </mxCell>
        <mxCell id="zicQz6CJfmKbyCbvD3w5-72" style="edgeStyle=orthogonalEdgeStyle;curved=1;rounded=0;orthogonalLoop=1;jettySize=auto;html=1;entryX=0.5;entryY=1;entryDx=0;entryDy=0;" parent="1" source="zicQz6CJfmKbyCbvD3w5-73" target="zicQz6CJfmKbyCbvD3w5-43" edge="1">
          <mxGeometry relative="1" as="geometry" />
        </mxCell>
        <mxCell id="zicQz6CJfmKbyCbvD3w5-73" value="&lt;span style=&quot;border-bottom: 1px dotted&quot;&gt;Kode_MataKuliah&lt;/span&gt;" style="ellipse;whiteSpace=wrap;html=1;align=center;" parent="1" vertex="1">
          <mxGeometry x="350" y="1110" width="110" height="50" as="geometry" />
        </mxCell>
        <mxCell id="zicQz6CJfmKbyCbvD3w5-74" style="edgeStyle=orthogonalEdgeStyle;curved=1;rounded=0;orthogonalLoop=1;jettySize=auto;html=1;entryX=0.5;entryY=0;entryDx=0;entryDy=0;" parent="1" source="zicQz6CJfmKbyCbvD3w5-75" target="zicQz6CJfmKbyCbvD3w5-48" edge="1">
          <mxGeometry relative="1" as="geometry">
            <Array as="points">
              <mxPoint x="280" y="870" />
              <mxPoint x="220" y="870" />
            </Array>
          </mxGeometry>
        </mxCell>
        <mxCell id="zicQz6CJfmKbyCbvD3w5-75" value="&lt;span style=&quot;border-bottom: 1px dotted&quot;&gt;Alamat_Ortu&lt;/span&gt;" style="ellipse;whiteSpace=wrap;html=1;align=center;" parent="1" vertex="1">
          <mxGeometry x="230" y="800" width="100" height="40" as="geometry" />
        </mxCell>
        <mxCell id="zicQz6CJfmKbyCbvD3w5-76" style="edgeStyle=orthogonalEdgeStyle;curved=1;rounded=0;orthogonalLoop=1;jettySize=auto;html=1;entryX=0.5;entryY=0;entryDx=0;entryDy=0;exitX=0.5;exitY=1;exitDx=0;exitDy=0;" parent="1" source="zicQz6CJfmKbyCbvD3w5-77" target="zicQz6CJfmKbyCbvD3w5-48" edge="1">
          <mxGeometry relative="1" as="geometry">
            <Array as="points">
              <mxPoint x="200" y="820" />
              <mxPoint x="200" y="875" />
              <mxPoint x="220" y="875" />
            </Array>
          </mxGeometry>
        </mxCell>
        <mxCell id="zicQz6CJfmKbyCbvD3w5-77" value="&lt;span style=&quot;border-bottom: 1px dotted&quot;&gt;Kode_Fak&lt;/span&gt;" style="ellipse;whiteSpace=wrap;html=1;align=center;" parent="1" vertex="1">
          <mxGeometry x="120" y="790" width="100" height="40" as="geometry" />
        </mxCell>
        <mxCell id="zicQz6CJfmKbyCbvD3w5-78" style="edgeStyle=orthogonalEdgeStyle;curved=1;rounded=0;orthogonalLoop=1;jettySize=auto;html=1;" parent="1" source="zicQz6CJfmKbyCbvD3w5-79" edge="1">
          <mxGeometry relative="1" as="geometry">
            <mxPoint x="220" y="930" as="targetPoint" />
          </mxGeometry>
        </mxCell>
        <mxCell id="zicQz6CJfmKbyCbvD3w5-79" value="&lt;span style=&quot;border-bottom: 1px dotted&quot;&gt;Nama&lt;/span&gt;" style="ellipse;whiteSpace=wrap;html=1;align=center;" parent="1" vertex="1">
          <mxGeometry x="30" y="830" width="100" height="40" as="geometry" />
        </mxCell>
        <mxCell id="zicQz6CJfmKbyCbvD3w5-80" style="edgeStyle=orthogonalEdgeStyle;curved=1;rounded=0;orthogonalLoop=1;jettySize=auto;html=1;exitX=1;exitY=0;exitDx=0;exitDy=0;" parent="1" source="zicQz6CJfmKbyCbvD3w5-81" edge="1">
          <mxGeometry relative="1" as="geometry">
            <mxPoint x="220" y="930" as="targetPoint" />
            <Array as="points">
              <mxPoint x="115" y="870" />
              <mxPoint x="220" y="870" />
            </Array>
          </mxGeometry>
        </mxCell>
        <mxCell id="zicQz6CJfmKbyCbvD3w5-81" value="&lt;span style=&quot;border-bottom: 1px dotted&quot;&gt;No_Mhs&lt;/span&gt;" style="ellipse;whiteSpace=wrap;html=1;align=center;" parent="1" vertex="1">
          <mxGeometry x="30" y="880" width="100" height="40" as="geometry" />
        </mxCell>
        <mxCell id="zicQz6CJfmKbyCbvD3w5-87" style="edgeStyle=orthogonalEdgeStyle;curved=1;rounded=0;orthogonalLoop=1;jettySize=auto;html=1;strokeWidth=1;" parent="1" source="zicQz6CJfmKbyCbvD3w5-86" edge="1">
          <mxGeometry relative="1" as="geometry">
            <mxPoint x="220" y="930" as="targetPoint" />
          </mxGeometry>
        </mxCell>
        <mxCell id="zicQz6CJfmKbyCbvD3w5-86" value="&lt;span style=&quot;border-bottom: 1px dotted&quot;&gt;SPP&lt;/span&gt;" style="ellipse;whiteSpace=wrap;html=1;align=center;" parent="1" vertex="1">
          <mxGeometry x="280" y="860" width="100" height="40" as="geometry" />
        </mxCell>
        <mxCell id="zicQz6CJfmKbyCbvD3w5-91" style="edgeStyle=orthogonalEdgeStyle;curved=1;rounded=0;orthogonalLoop=1;jettySize=auto;html=1;strokeWidth=1;exitX=0;exitY=0;exitDx=0;exitDy=0;" parent="1" source="zicQz6CJfmKbyCbvD3w5-90" edge="1">
          <mxGeometry relative="1" as="geometry">
            <mxPoint x="810" y="910" as="targetPoint" />
            <Array as="points">
              <mxPoint x="850" y="937" />
              <mxPoint x="850" y="910" />
            </Array>
          </mxGeometry>
        </mxCell>
        <mxCell id="zicQz6CJfmKbyCbvD3w5-90" value="Kode_MataKuliah" style="ellipse;whiteSpace=wrap;html=1;align=center;" parent="1" vertex="1">
          <mxGeometry x="870" y="930" width="110" height="50" as="geometry" />
        </mxCell>
        <mxCell id="zicQz6CJfmKbyCbvD3w5-104" style="edgeStyle=orthogonalEdgeStyle;curved=1;rounded=0;orthogonalLoop=1;jettySize=auto;html=1;exitX=0;exitY=0.5;exitDx=0;exitDy=0;strokeWidth=1;" parent="1" source="zicQz6CJfmKbyCbvD3w5-96" edge="1">
          <mxGeometry relative="1" as="geometry">
            <mxPoint x="490" y="760.0000000000001" as="targetPoint" />
          </mxGeometry>
        </mxCell>
        <mxCell id="zicQz6CJfmKbyCbvD3w5-96" value="&lt;span style=&quot;border-bottom: 1px dotted&quot;&gt;SKS&lt;/span&gt;" style="ellipse;whiteSpace=wrap;html=1;align=center;rotation=-30;" parent="1" vertex="1">
          <mxGeometry x="560" y="675" width="100" height="25" as="geometry" />
        </mxCell>
        <mxCell id="zicQz6CJfmKbyCbvD3w5-105" style="edgeStyle=orthogonalEdgeStyle;curved=1;rounded=0;orthogonalLoop=1;jettySize=auto;html=1;exitX=0;exitY=0.5;exitDx=0;exitDy=0;strokeWidth=1;" parent="1" source="zicQz6CJfmKbyCbvD3w5-97" edge="1">
          <mxGeometry relative="1" as="geometry">
            <mxPoint x="490" y="760.0000000000001" as="targetPoint" />
          </mxGeometry>
        </mxCell>
        <mxCell id="zicQz6CJfmKbyCbvD3w5-97" value="Nilai" style="ellipse;whiteSpace=wrap;html=1;align=center;rotation=-30;" parent="1" vertex="1">
          <mxGeometry x="577.5" y="695.67" width="100" height="25" as="geometry" />
        </mxCell>
        <mxCell id="wiQUCKefoilmEezQMDir-78" value="KRS" style="whiteSpace=wrap;html=1;align=center;" vertex="1" parent="1">
          <mxGeometry x="870" y="1620" width="100" height="40" as="geometry" />
        </mxCell>
        <mxCell id="wiQUCKefoilmEezQMDir-81" style="edgeStyle=orthogonalEdgeStyle;curved=1;rounded=0;orthogonalLoop=1;jettySize=auto;html=1;entryX=0;entryY=0.5;entryDx=0;entryDy=0;strokeWidth=1;" edge="1" parent="1" source="wiQUCKefoilmEezQMDir-82" target="wiQUCKefoilmEezQMDir-84">
          <mxGeometry relative="1" as="geometry" />
        </mxCell>
        <mxCell id="wiQUCKefoilmEezQMDir-82" value="Mata Kuliah" style="whiteSpace=wrap;html=1;align=center;" vertex="1" parent="1">
          <mxGeometry x="640" y="1790" width="100" height="40" as="geometry" />
        </mxCell>
        <mxCell id="wiQUCKefoilmEezQMDir-83" style="rounded=0;orthogonalLoop=1;jettySize=auto;html=1;entryX=0.5;entryY=1;entryDx=0;entryDy=0;strokeWidth=1;" edge="1" parent="1" source="wiQUCKefoilmEezQMDir-84" target="wiQUCKefoilmEezQMDir-78">
          <mxGeometry relative="1" as="geometry" />
        </mxCell>
        <mxCell id="wiQUCKefoilmEezQMDir-84" value="Mengajukan" style="shape=rhombus;perimeter=rhombusPerimeter;whiteSpace=wrap;html=1;align=center;" vertex="1" parent="1">
          <mxGeometry x="870" y="1780" width="120" height="60" as="geometry" />
        </mxCell>
        <mxCell id="wiQUCKefoilmEezQMDir-85" style="edgeStyle=orthogonalEdgeStyle;curved=1;rounded=0;orthogonalLoop=1;jettySize=auto;html=1;entryX=0;entryY=0.5;entryDx=0;entryDy=0;strokeWidth=1;" edge="1" parent="1" source="wiQUCKefoilmEezQMDir-86" target="wiQUCKefoilmEezQMDir-82">
          <mxGeometry relative="1" as="geometry" />
        </mxCell>
        <mxCell id="wiQUCKefoilmEezQMDir-86" value="Memilih" style="shape=rhombus;perimeter=rhombusPerimeter;whiteSpace=wrap;html=1;align=center;" vertex="1" parent="1">
          <mxGeometry x="320" y="1780" width="120" height="60" as="geometry" />
        </mxCell>
        <mxCell id="wiQUCKefoilmEezQMDir-87" style="edgeStyle=orthogonalEdgeStyle;curved=1;rounded=0;orthogonalLoop=1;jettySize=auto;html=1;entryX=0.5;entryY=0;entryDx=0;entryDy=0;strokeWidth=1;" edge="1" parent="1" source="wiQUCKefoilmEezQMDir-88" target="wiQUCKefoilmEezQMDir-86">
          <mxGeometry relative="1" as="geometry" />
        </mxCell>
        <mxCell id="wiQUCKefoilmEezQMDir-88" value="Mahasiswa" style="whiteSpace=wrap;html=1;align=center;" vertex="1" parent="1">
          <mxGeometry x="330" y="1660" width="100" height="40" as="geometry" />
        </mxCell>
        <mxCell id="wiQUCKefoilmEezQMDir-89" style="edgeStyle=orthogonalEdgeStyle;curved=1;rounded=0;orthogonalLoop=1;jettySize=auto;html=1;entryX=1;entryY=0.5;entryDx=0;entryDy=0;" edge="1" parent="1" source="wiQUCKefoilmEezQMDir-90" target="wiQUCKefoilmEezQMDir-78">
          <mxGeometry relative="1" as="geometry" />
        </mxCell>
        <mxCell id="wiQUCKefoilmEezQMDir-90" value="&lt;span style=&quot;border-bottom: 1px dotted&quot;&gt;No_Mhs&lt;/span&gt;" style="ellipse;whiteSpace=wrap;html=1;align=center;" vertex="1" parent="1">
          <mxGeometry x="1040" y="1570" width="100" height="40" as="geometry" />
        </mxCell>
        <mxCell id="wiQUCKefoilmEezQMDir-91" style="edgeStyle=orthogonalEdgeStyle;curved=1;rounded=0;orthogonalLoop=1;jettySize=auto;html=1;" edge="1" parent="1" source="wiQUCKefoilmEezQMDir-92">
          <mxGeometry relative="1" as="geometry">
            <mxPoint x="690" y="1830" as="targetPoint" />
          </mxGeometry>
        </mxCell>
        <mxCell id="wiQUCKefoilmEezQMDir-92" value="&lt;span style=&quot;border-bottom: 1px dotted&quot;&gt;SKS&lt;/span&gt;" style="ellipse;whiteSpace=wrap;html=1;align=center;" vertex="1" parent="1">
          <mxGeometry x="750" y="1840" width="100" height="40" as="geometry" />
        </mxCell>
        <mxCell id="wiQUCKefoilmEezQMDir-93" style="edgeStyle=orthogonalEdgeStyle;curved=1;rounded=0;orthogonalLoop=1;jettySize=auto;html=1;" edge="1" parent="1" source="wiQUCKefoilmEezQMDir-94">
          <mxGeometry relative="1" as="geometry">
            <mxPoint x="690" y="1830" as="targetPoint" />
            <Array as="points">
              <mxPoint x="685" y="1850" />
              <mxPoint x="690" y="1850" />
            </Array>
          </mxGeometry>
        </mxCell>
        <mxCell id="wiQUCKefoilmEezQMDir-94" value="&lt;span style=&quot;border-bottom: 1px dotted&quot;&gt;Nama_MataKuliah&lt;/span&gt;" style="ellipse;whiteSpace=wrap;html=1;align=center;" vertex="1" parent="1">
          <mxGeometry x="630" y="1900" width="110" height="60" as="geometry" />
        </mxCell>
        <mxCell id="wiQUCKefoilmEezQMDir-95" style="edgeStyle=orthogonalEdgeStyle;curved=1;rounded=0;orthogonalLoop=1;jettySize=auto;html=1;entryX=0.5;entryY=1;entryDx=0;entryDy=0;" edge="1" parent="1" source="wiQUCKefoilmEezQMDir-96" target="wiQUCKefoilmEezQMDir-82">
          <mxGeometry relative="1" as="geometry" />
        </mxCell>
        <mxCell id="wiQUCKefoilmEezQMDir-96" value="&lt;span style=&quot;border-bottom: 1px dotted&quot;&gt;Kode_MataKuliah&lt;/span&gt;" style="ellipse;whiteSpace=wrap;html=1;align=center;" vertex="1" parent="1">
          <mxGeometry x="510" y="1840" width="110" height="50" as="geometry" />
        </mxCell>
        <mxCell id="wiQUCKefoilmEezQMDir-97" style="edgeStyle=orthogonalEdgeStyle;curved=1;rounded=0;orthogonalLoop=1;jettySize=auto;html=1;entryX=0.5;entryY=0;entryDx=0;entryDy=0;" edge="1" parent="1" source="wiQUCKefoilmEezQMDir-98" target="wiQUCKefoilmEezQMDir-88">
          <mxGeometry relative="1" as="geometry">
            <Array as="points">
              <mxPoint x="440" y="1600" />
              <mxPoint x="380" y="1600" />
            </Array>
          </mxGeometry>
        </mxCell>
        <mxCell id="wiQUCKefoilmEezQMDir-98" value="&lt;span style=&quot;border-bottom: 1px dotted&quot;&gt;Alamat_Ortu&lt;/span&gt;" style="ellipse;whiteSpace=wrap;html=1;align=center;" vertex="1" parent="1">
          <mxGeometry x="390" y="1530" width="100" height="40" as="geometry" />
        </mxCell>
        <mxCell id="wiQUCKefoilmEezQMDir-99" style="edgeStyle=orthogonalEdgeStyle;curved=1;rounded=0;orthogonalLoop=1;jettySize=auto;html=1;entryX=0.5;entryY=0;entryDx=0;entryDy=0;exitX=0.5;exitY=1;exitDx=0;exitDy=0;" edge="1" parent="1" source="wiQUCKefoilmEezQMDir-100" target="wiQUCKefoilmEezQMDir-88">
          <mxGeometry relative="1" as="geometry">
            <Array as="points">
              <mxPoint x="360" y="1550" />
              <mxPoint x="360" y="1605" />
              <mxPoint x="380" y="1605" />
            </Array>
          </mxGeometry>
        </mxCell>
        <mxCell id="wiQUCKefoilmEezQMDir-100" value="&lt;span style=&quot;border-bottom: 1px dotted&quot;&gt;Kode_Fak&lt;/span&gt;" style="ellipse;whiteSpace=wrap;html=1;align=center;" vertex="1" parent="1">
          <mxGeometry x="280" y="1520" width="100" height="40" as="geometry" />
        </mxCell>
        <mxCell id="wiQUCKefoilmEezQMDir-101" style="edgeStyle=orthogonalEdgeStyle;curved=1;rounded=0;orthogonalLoop=1;jettySize=auto;html=1;" edge="1" parent="1" source="wiQUCKefoilmEezQMDir-102">
          <mxGeometry relative="1" as="geometry">
            <mxPoint x="380" y="1660" as="targetPoint" />
          </mxGeometry>
        </mxCell>
        <mxCell id="wiQUCKefoilmEezQMDir-102" value="&lt;span style=&quot;border-bottom: 1px dotted&quot;&gt;Nama&lt;/span&gt;" style="ellipse;whiteSpace=wrap;html=1;align=center;" vertex="1" parent="1">
          <mxGeometry x="190" y="1560" width="100" height="40" as="geometry" />
        </mxCell>
        <mxCell id="wiQUCKefoilmEezQMDir-103" style="edgeStyle=orthogonalEdgeStyle;curved=1;rounded=0;orthogonalLoop=1;jettySize=auto;html=1;exitX=1;exitY=0;exitDx=0;exitDy=0;" edge="1" parent="1" source="wiQUCKefoilmEezQMDir-104">
          <mxGeometry relative="1" as="geometry">
            <mxPoint x="380" y="1660" as="targetPoint" />
            <Array as="points">
              <mxPoint x="275" y="1600" />
              <mxPoint x="380" y="1600" />
            </Array>
          </mxGeometry>
        </mxCell>
        <mxCell id="wiQUCKefoilmEezQMDir-104" value="&lt;span style=&quot;border-bottom: 1px dotted&quot;&gt;No_Mhs&lt;/span&gt;" style="ellipse;whiteSpace=wrap;html=1;align=center;" vertex="1" parent="1">
          <mxGeometry x="190" y="1610" width="100" height="40" as="geometry" />
        </mxCell>
        <mxCell id="wiQUCKefoilmEezQMDir-105" style="edgeStyle=orthogonalEdgeStyle;curved=1;rounded=0;orthogonalLoop=1;jettySize=auto;html=1;strokeWidth=1;" edge="1" parent="1" source="wiQUCKefoilmEezQMDir-106">
          <mxGeometry relative="1" as="geometry">
            <mxPoint x="380" y="1660" as="targetPoint" />
          </mxGeometry>
        </mxCell>
        <mxCell id="wiQUCKefoilmEezQMDir-106" value="&lt;span style=&quot;border-bottom: 1px dotted&quot;&gt;SPP&lt;/span&gt;" style="ellipse;whiteSpace=wrap;html=1;align=center;" vertex="1" parent="1">
          <mxGeometry x="440" y="1590" width="100" height="40" as="geometry" />
        </mxCell>
        <mxCell id="wiQUCKefoilmEezQMDir-107" style="edgeStyle=orthogonalEdgeStyle;curved=1;rounded=0;orthogonalLoop=1;jettySize=auto;html=1;strokeWidth=1;exitX=0;exitY=0;exitDx=0;exitDy=0;" edge="1" parent="1" source="wiQUCKefoilmEezQMDir-108">
          <mxGeometry relative="1" as="geometry">
            <mxPoint x="970" y="1640" as="targetPoint" />
            <Array as="points">
              <mxPoint x="1010" y="1667" />
              <mxPoint x="1010" y="1640" />
            </Array>
          </mxGeometry>
        </mxCell>
        <mxCell id="wiQUCKefoilmEezQMDir-108" value="Kode_MataKuliah" style="ellipse;whiteSpace=wrap;html=1;align=center;" vertex="1" parent="1">
          <mxGeometry x="1030" y="1660" width="110" height="50" as="geometry" />
        </mxCell>
      </root>
    </mxGraphModel>
  </diagram>
  <diagram id="SK-QH-mqzmWRE_8AWfSp" name="Page-2">
    <mxGraphModel dx="3585" dy="1848" grid="1" gridSize="10" guides="1" tooltips="1" connect="1" arrows="1" fold="1" page="1" pageScale="1" pageWidth="850" pageHeight="1100" math="0" shadow="0">
      <root>
        <mxCell id="0" />
        <mxCell id="1" parent="0" />
        <mxCell id="9MKwxHn4uhVHy-T9kIyE-1" value="Transaksi" style="whiteSpace=wrap;html=1;align=center;" vertex="1" parent="1">
          <mxGeometry x="890" y="900" width="100" height="40" as="geometry" />
        </mxCell>
        <mxCell id="9MKwxHn4uhVHy-T9kIyE-2" style="edgeStyle=orthogonalEdgeStyle;curved=1;rounded=0;orthogonalLoop=1;jettySize=auto;html=1;entryX=0;entryY=0.5;entryDx=0;entryDy=0;strokeWidth=1;" edge="1" parent="1" source="9MKwxHn4uhVHy-T9kIyE-3" target="9MKwxHn4uhVHy-T9kIyE-5">
          <mxGeometry relative="1" as="geometry" />
        </mxCell>
        <mxCell id="9MKwxHn4uhVHy-T9kIyE-3" value="Customer" style="whiteSpace=wrap;html=1;align=center;" vertex="1" parent="1">
          <mxGeometry x="640" y="1070" width="100" height="40" as="geometry" />
        </mxCell>
        <mxCell id="9MKwxHn4uhVHy-T9kIyE-4" style="rounded=0;orthogonalLoop=1;jettySize=auto;html=1;entryX=0.5;entryY=1;entryDx=0;entryDy=0;strokeWidth=1;" edge="1" parent="1" source="9MKwxHn4uhVHy-T9kIyE-5" target="9MKwxHn4uhVHy-T9kIyE-1">
          <mxGeometry relative="1" as="geometry" />
        </mxCell>
        <mxCell id="9MKwxHn4uhVHy-T9kIyE-5" value="Melakukan Transaksi" style="shape=rhombus;perimeter=rhombusPerimeter;whiteSpace=wrap;html=1;align=center;" vertex="1" parent="1">
          <mxGeometry x="870" y="1050" width="140" height="80" as="geometry" />
        </mxCell>
        <mxCell id="9MKwxHn4uhVHy-T9kIyE-6" style="edgeStyle=orthogonalEdgeStyle;curved=1;rounded=0;orthogonalLoop=1;jettySize=auto;html=1;entryX=0;entryY=0.5;entryDx=0;entryDy=0;strokeWidth=1;" edge="1" parent="1" source="9MKwxHn4uhVHy-T9kIyE-7" target="9MKwxHn4uhVHy-T9kIyE-3">
          <mxGeometry relative="1" as="geometry" />
        </mxCell>
        <mxCell id="9MKwxHn4uhVHy-T9kIyE-7" value="Mendatangkan" style="shape=rhombus;perimeter=rhombusPerimeter;whiteSpace=wrap;html=1;align=center;" vertex="1" parent="1">
          <mxGeometry x="320" y="1060" width="120" height="60" as="geometry" />
        </mxCell>
        <mxCell id="9MKwxHn4uhVHy-T9kIyE-8" style="edgeStyle=orthogonalEdgeStyle;curved=1;rounded=0;orthogonalLoop=1;jettySize=auto;html=1;entryX=0.5;entryY=0;entryDx=0;entryDy=0;strokeWidth=1;" edge="1" parent="1" source="9MKwxHn4uhVHy-T9kIyE-9" target="9MKwxHn4uhVHy-T9kIyE-7">
          <mxGeometry relative="1" as="geometry" />
        </mxCell>
        <mxCell id="9MKwxHn4uhVHy-T9kIyE-9" value="Campaign" style="whiteSpace=wrap;html=1;align=center;" vertex="1" parent="1">
          <mxGeometry x="330" y="940" width="100" height="40" as="geometry" />
        </mxCell>
        <mxCell id="9MKwxHn4uhVHy-T9kIyE-10" style="edgeStyle=orthogonalEdgeStyle;curved=1;rounded=0;orthogonalLoop=1;jettySize=auto;html=1;entryX=1;entryY=0.5;entryDx=0;entryDy=0;" edge="1" parent="1" source="9MKwxHn4uhVHy-T9kIyE-11" target="9MKwxHn4uhVHy-T9kIyE-1">
          <mxGeometry relative="1" as="geometry" />
        </mxCell>
        <mxCell id="9MKwxHn4uhVHy-T9kIyE-11" value="&lt;span style=&quot;border-bottom: 1px dotted&quot;&gt;&lt;font style=&quot;font-size: 11px;&quot;&gt;Tanggal_transaksi&lt;/font&gt;&lt;/span&gt;" style="ellipse;whiteSpace=wrap;html=1;align=center;" vertex="1" parent="1">
          <mxGeometry x="1065" y="790" width="105" height="50" as="geometry" />
        </mxCell>
        <mxCell id="9MKwxHn4uhVHy-T9kIyE-12" style="edgeStyle=orthogonalEdgeStyle;curved=1;rounded=0;orthogonalLoop=1;jettySize=auto;html=1;" edge="1" parent="1" source="9MKwxHn4uhVHy-T9kIyE-13">
          <mxGeometry relative="1" as="geometry">
            <mxPoint x="690" y="1110" as="targetPoint" />
          </mxGeometry>
        </mxCell>
        <mxCell id="9MKwxHn4uhVHy-T9kIyE-13" value="Domisili" style="ellipse;whiteSpace=wrap;html=1;align=center;" vertex="1" parent="1">
          <mxGeometry x="750" y="1120" width="100" height="40" as="geometry" />
        </mxCell>
        <mxCell id="9MKwxHn4uhVHy-T9kIyE-14" style="edgeStyle=orthogonalEdgeStyle;curved=1;rounded=0;orthogonalLoop=1;jettySize=auto;html=1;" edge="1" parent="1" source="9MKwxHn4uhVHy-T9kIyE-15">
          <mxGeometry relative="1" as="geometry">
            <mxPoint x="690" y="1110" as="targetPoint" />
            <Array as="points">
              <mxPoint x="685" y="1130" />
              <mxPoint x="690" y="1130" />
            </Array>
          </mxGeometry>
        </mxCell>
        <mxCell id="9MKwxHn4uhVHy-T9kIyE-15" value="&lt;span style=&quot;border-bottom: 1px dotted&quot;&gt;Usia&lt;/span&gt;" style="ellipse;whiteSpace=wrap;html=1;align=center;" vertex="1" parent="1">
          <mxGeometry x="630" y="1190" width="80" height="40" as="geometry" />
        </mxCell>
        <mxCell id="9MKwxHn4uhVHy-T9kIyE-16" style="edgeStyle=orthogonalEdgeStyle;curved=1;rounded=0;orthogonalLoop=1;jettySize=auto;html=1;entryX=0.5;entryY=1;entryDx=0;entryDy=0;" edge="1" parent="1" source="9MKwxHn4uhVHy-T9kIyE-17" target="9MKwxHn4uhVHy-T9kIyE-3">
          <mxGeometry relative="1" as="geometry" />
        </mxCell>
        <mxCell id="9MKwxHn4uhVHy-T9kIyE-17" value="&lt;span style=&quot;border-bottom: 1px dotted&quot;&gt;Nama_customer&lt;/span&gt;" style="ellipse;whiteSpace=wrap;html=1;align=center;" vertex="1" parent="1">
          <mxGeometry x="510" y="1120" width="110" height="50" as="geometry" />
        </mxCell>
        <mxCell id="9MKwxHn4uhVHy-T9kIyE-30" style="edgeStyle=orthogonalEdgeStyle;rounded=0;orthogonalLoop=1;jettySize=auto;html=1;curved=1;" edge="1" parent="1" source="9MKwxHn4uhVHy-T9kIyE-21">
          <mxGeometry relative="1" as="geometry">
            <mxPoint x="380" y="940" as="targetPoint" />
          </mxGeometry>
        </mxCell>
        <mxCell id="9MKwxHn4uhVHy-T9kIyE-21" value="&lt;span style=&quot;border-bottom: 1px dotted&quot;&gt;End Date&amp;nbsp;&lt;/span&gt;" style="ellipse;whiteSpace=wrap;html=1;align=center;" vertex="1" parent="1">
          <mxGeometry x="360" y="790" width="100" height="40" as="geometry" />
        </mxCell>
        <mxCell id="9MKwxHn4uhVHy-T9kIyE-22" style="edgeStyle=orthogonalEdgeStyle;curved=1;rounded=0;orthogonalLoop=1;jettySize=auto;html=1;" edge="1" parent="1" source="9MKwxHn4uhVHy-T9kIyE-23">
          <mxGeometry relative="1" as="geometry">
            <mxPoint x="380" y="940" as="targetPoint" />
          </mxGeometry>
        </mxCell>
        <mxCell id="9MKwxHn4uhVHy-T9kIyE-23" value="&lt;span style=&quot;border-bottom: 1px dotted&quot;&gt;Start Date&lt;/span&gt;" style="ellipse;whiteSpace=wrap;html=1;align=center;" vertex="1" parent="1">
          <mxGeometry x="250" y="810" width="100" height="40" as="geometry" />
        </mxCell>
        <mxCell id="9MKwxHn4uhVHy-T9kIyE-31" style="edgeStyle=orthogonalEdgeStyle;curved=1;rounded=0;orthogonalLoop=1;jettySize=auto;html=1;" edge="1" parent="1" source="9MKwxHn4uhVHy-T9kIyE-25">
          <mxGeometry relative="1" as="geometry">
            <mxPoint x="380" y="940" as="targetPoint" />
          </mxGeometry>
        </mxCell>
        <mxCell id="9MKwxHn4uhVHy-T9kIyE-25" value="&lt;span style=&quot;border-bottom: 1px dotted&quot;&gt;Tipe Campaign&lt;/span&gt;" style="ellipse;whiteSpace=wrap;html=1;align=center;" vertex="1" parent="1">
          <mxGeometry x="230" y="870" width="100" height="40" as="geometry" />
        </mxCell>
        <mxCell id="9MKwxHn4uhVHy-T9kIyE-38" style="edgeStyle=orthogonalEdgeStyle;curved=1;rounded=0;orthogonalLoop=1;jettySize=auto;html=1;fontSize=11;" edge="1" parent="1" source="9MKwxHn4uhVHy-T9kIyE-29">
          <mxGeometry relative="1" as="geometry">
            <mxPoint x="990" y="920" as="targetPoint" />
            <Array as="points">
              <mxPoint x="1070" y="878" />
              <mxPoint x="1070" y="910" />
              <mxPoint x="1000" y="910" />
            </Array>
          </mxGeometry>
        </mxCell>
        <mxCell id="9MKwxHn4uhVHy-T9kIyE-29" value="Nama_Sales" style="ellipse;whiteSpace=wrap;html=1;align=center;" vertex="1" parent="1">
          <mxGeometry x="1072.5" y="855" width="100" height="45" as="geometry" />
        </mxCell>
        <mxCell id="9MKwxHn4uhVHy-T9kIyE-33" style="edgeStyle=orthogonalEdgeStyle;curved=1;rounded=0;orthogonalLoop=1;jettySize=auto;html=1;" edge="1" parent="1" source="9MKwxHn4uhVHy-T9kIyE-32">
          <mxGeometry relative="1" as="geometry">
            <mxPoint x="380" y="940" as="targetPoint" />
          </mxGeometry>
        </mxCell>
        <mxCell id="9MKwxHn4uhVHy-T9kIyE-32" value="&lt;span style=&quot;border-bottom: 1px dotted&quot;&gt;Budget&lt;/span&gt;" style="ellipse;whiteSpace=wrap;html=1;align=center;" vertex="1" parent="1">
          <mxGeometry x="440" y="840" width="100" height="40" as="geometry" />
        </mxCell>
        <mxCell id="9MKwxHn4uhVHy-T9kIyE-39" style="edgeStyle=orthogonalEdgeStyle;curved=1;rounded=0;orthogonalLoop=1;jettySize=auto;html=1;fontSize=11;" edge="1" parent="1" source="9MKwxHn4uhVHy-T9kIyE-34">
          <mxGeometry relative="1" as="geometry">
            <mxPoint x="990" y="920" as="targetPoint" />
          </mxGeometry>
        </mxCell>
        <mxCell id="9MKwxHn4uhVHy-T9kIyE-34" value="Harga_Asli" style="ellipse;whiteSpace=wrap;html=1;align=center;" vertex="1" parent="1">
          <mxGeometry x="1075" y="910" width="95" height="40" as="geometry" />
        </mxCell>
        <mxCell id="9MKwxHn4uhVHy-T9kIyE-40" style="edgeStyle=orthogonalEdgeStyle;curved=1;rounded=0;orthogonalLoop=1;jettySize=auto;html=1;fontSize=11;exitX=-0.002;exitY=0.368;exitDx=0;exitDy=0;exitPerimeter=0;" edge="1" parent="1" source="9MKwxHn4uhVHy-T9kIyE-35">
          <mxGeometry relative="1" as="geometry">
            <mxPoint x="990" y="920" as="targetPoint" />
            <Array as="points">
              <mxPoint x="1070" y="970" />
              <mxPoint x="1040" y="970" />
              <mxPoint x="1040" y="920" />
            </Array>
          </mxGeometry>
        </mxCell>
        <mxCell id="9MKwxHn4uhVHy-T9kIyE-35" value="Customer" style="ellipse;whiteSpace=wrap;html=1;align=center;" vertex="1" parent="1">
          <mxGeometry x="1070" y="960" width="95" height="40" as="geometry" />
        </mxCell>
        <mxCell id="9MKwxHn4uhVHy-T9kIyE-41" style="edgeStyle=orthogonalEdgeStyle;curved=1;rounded=0;orthogonalLoop=1;jettySize=auto;html=1;fontSize=11;exitX=0.105;exitY=0.25;exitDx=0;exitDy=0;exitPerimeter=0;" edge="1" parent="1" source="9MKwxHn4uhVHy-T9kIyE-36">
          <mxGeometry relative="1" as="geometry">
            <mxPoint x="990" y="920" as="targetPoint" />
            <Array as="points">
              <mxPoint x="1080" y="1010" />
              <mxPoint x="1030" y="1010" />
              <mxPoint x="1030" y="920" />
            </Array>
          </mxGeometry>
        </mxCell>
        <mxCell id="9MKwxHn4uhVHy-T9kIyE-36" value="Tipe_Produk" style="ellipse;whiteSpace=wrap;html=1;align=center;" vertex="1" parent="1">
          <mxGeometry x="1070" y="1010" width="95" height="40" as="geometry" />
        </mxCell>
      </root>
    </mxGraphModel>
  </diagram>
</mxfile>
